<?xml version="1.0" standalone="no"?>
<!DOCTYPE svg PUBLIC "-//W3C//DTD SVG 20010904//EN"
 "http://www.w3.org/TR/2001/REC-SVG-20010904/DTD/svg10.dtd">
<svg version="1.0" xmlns="http://www.w3.org/2000/svg"
 width="256.000000pt" height="181.000000pt" viewBox="0 0 256.000000 181.000000"
 preserveAspectRatio="xMidYMid meet">

<g transform="translate(0.000000,181.000000) scale(0.100000,-0.100000)"
fill="#000000" stroke="none">
<path d="M1364 1700 c-28 -4 -67 -13 -87 -19 -29 -10 -46 -9 -92 4 -73 22
-133 13 -227 -32 -99 -47 -194 -121 -263 -204 -31 -38 -62 -69 -69 -69 -7 0
-21 9 -30 19 -10 11 -30 25 -46 31 -33 14 -35 18 -50 115 -13 82 -29 118 -53
123 -24 5 -136 -32 -230 -75 -83 -39 -94 -54 -84 -116 5 -28 0 -36 -35 -68
-33 -29 -41 -42 -40 -68 1 -41 16 -60 70 -84 24 -10 67 -37 95 -58 40 -31 58
-39 79 -35 33 6 48 -16 113 -164 l44 -103 -16 -57 c-14 -52 -14 -61 1 -114 22
-73 91 -152 142 -162 38 -7 54 -28 54 -70 0 -15 14 -69 30 -121 26 -81 30
-108 30 -208 0 -96 3 -117 16 -122 31 -12 39 15 39 130 0 101 -4 122 -34 212
-22 63 -30 100 -23 103 22 7 94 60 152 110 32 29 63 52 69 52 6 0 53 -34 105
-75 l94 -75 4 -67 c4 -58 7 -68 34 -89 42 -34 87 -40 135 -18 39 17 41 17 85
-4 56 -28 109 -28 154 -1 56 33 70 57 70 121 l0 57 48 24 c26 13 61 33 79 43
31 18 32 18 60 -2 15 -12 29 -27 31 -35 1 -8 -20 -50 -48 -94 -70 -111 -75
-134 -54 -261 16 -96 19 -105 38 -102 17 2 21 9 19 33 -1 17 -5 73 -9 125 l-6
95 41 63 c50 77 81 136 81 156 0 27 36 75 98 131 51 46 64 66 82 119 11 35 54
115 94 178 l73 113 80 0 c49 0 86 5 95 13 31 25 88 131 94 174 4 26 0 65 -9
98 -8 30 -14 69 -14 85 2 26 -4 33 -43 51 -62 30 -72 41 -60 64 8 14 23 20 63
22 37 2 52 7 52 17 0 30 -92 38 -134 12 -8 -5 -17 -26 -20 -47 l-6 -39 -70
-11 c-123 -19 -140 -33 -124 -104 19 -78 15 -85 -87 -186 -53 -52 -100 -94
-104 -94 -5 0 -11 24 -15 53 -17 136 -79 291 -143 361 -32 34 -125 98 -167
114 -35 14 -163 42 -185 41 -8 -1 -38 -5 -66 -9z m-914 -99 c5 -11 10 -30 10
-42 0 -20 -4 -21 -52 -16 -29 3 -75 1 -101 -5 -27 -5 -51 -7 -55 -4 -12 13 44
55 93 70 68 20 92 19 105 -3z m-210 -91 c0 -10 -9 -24 -19 -30 -43 -22 -55 -4
-21 30 25 25 40 25 40 0z m213 -17 c4 -2 7 -10 7 -18 0 -14 -66 -15 -89 -1 -6
4 -11 2 -11 -3 0 -13 -60 -14 -80 -1 -24 15 -2 25 51 23 29 -1 49 2 49 8 0 10
53 4 73 -8z m1924 -1 c37 -23 -60 -51 -132 -38 -30 6 -34 10 -25 21 16 20 133
32 157 17z m-2027 -67 c78 -3 110 -11 110 -30 0 -20 -60 -29 -154 -22 -92 6
-116 13 -116 33 0 21 32 35 65 27 17 -3 59 -7 95 -8z m2075 -12 c2 -7 -8 -21
-23 -30 -80 -50 -96 -129 -41 -196 18 -22 28 -42 23 -47 -5 -4 -39 -11 -75
-14 -51 -6 -68 -4 -78 7 -15 18 -38 130 -47 222 l-6 70 121 0 c87 0 122 -3
126 -12z m-1867 -42 c26 -16 9 -55 -31 -74 -50 -25 -255 -36 -313 -17 -74 24
-104 41 -104 62 0 22 0 22 130 -2 102 -19 270 1 270 32 0 10 31 10 48 -1z
m1895 -55 c7 -17 -8 -85 -21 -98 -6 -6 -19 -7 -31 -3 -17 5 -21 14 -21 49 0
23 5 47 12 54 16 16 55 15 61 -2z m-295 -73 c16 -32 23 -132 11 -156 -32 -59
-102 -157 -113 -157 -7 0 -21 18 -31 40 -10 22 -26 47 -36 56 -36 33 -24 61
63 150 45 46 85 84 89 84 5 0 12 -8 17 -17z m-1588 -8 c0 -8 -4 -15 -10 -15
-5 0 -10 7 -10 15 0 8 5 15 10 15 6 0 10 -7 10 -15z m-53 -51 c58 -98 225
-332 287 -404 36 -41 66 -80 66 -87 0 -13 -112 -115 -148 -135 -22 -11 -26
-10 -53 22 -15 19 -49 82 -75 140 -25 58 -56 128 -69 155 -53 116 -65 145 -85
197 -11 30 -36 73 -55 95 -19 23 -35 44 -35 46 0 7 26 12 87 15 l53 3 27 -47z
m1199 -81 c9 -45 30 -112 63 -204 30 -84 30 -86 15 -140 -31 -110 -127 -196
-252 -225 -126 -30 -334 -10 -433 41 -70 37 -295 255 -331 322 -20 38 -21 44
-8 57 8 8 24 16 34 18 26 4 33 -22 7 -29 -21 -5 -29 -37 -12 -47 11 -7 36 22
28 31 -14 13 17 33 49 33 39 0 105 54 156 127 l29 43 324 0 325 0 6 -27z m131
-478 c3 -9 3 -18 0 -21 -10 -10 -47 7 -47 22 0 19 39 18 47 -1z m-407 -164 c0
-27 -149 -30 -158 -3 -3 9 17 12 77 12 45 0 81 -4 81 -9z"/>
<path d="M1535 1006 c-11 -8 -16 -22 -13 -41 2 -24 9 -31 29 -33 35 -4 52 18
40 50 -12 31 -34 41 -56 24z"/>
<path d="M1094 997 c-11 -31 0 -72 22 -75 23 -3 48 34 42 64 -4 24 -55 32 -64
11z"/>
<path d="M1334 933 c2 -16 5 -32 5 -38 1 -5 8 -1 16 9 12 16 12 22 2 28 -9 6
-9 8 1 8 6 0 12 5 12 10 0 6 -9 10 -20 10 -17 0 -20 -5 -16 -27z"/>
<path d="M1308 839 c-16 -11 -28 -24 -28 -28 0 -19 55 -71 75 -71 31 0 66 74
44 95 -25 25 -62 26 -91 4z m69 -41 c-5 -28 -14 -31 -36 -11 -29 24 -26 34 9
31 22 -2 29 -7 27 -20z"/>
</g>
</svg>
